<?xml version="1.0" standalone="no"?>
<!DOCTYPE svg PUBLIC "-//W3C//DTD SVG 20010904//EN"
 "http://www.w3.org/TR/2001/REC-SVG-20010904/DTD/svg10.dtd">
<svg version="1.0" xmlns="http://www.w3.org/2000/svg"
 width="753.000000pt" height="391.000000pt" viewBox="0 0 753.000000 391.000000"
 preserveAspectRatio="xMidYMid meet">

<g transform="translate(0.000000,391.000000) scale(0.100000,-0.100000)"
fill="#000000" stroke="none">
<path d="M1883 3437 c-16 -18 -49 -68 -74 -110 -24 -42 -99 -164 -166 -270
-68 -105 -131 -205 -141 -222 -65 -106 -126 -195 -142 -210 -17 -15 -20 -14
-53 19 -45 44 -77 53 -112 30 -19 -12 -29 -14 -37 -6 -13 13 0 37 116 202 47
68 91 141 97 163 14 54 3 104 -30 138 -66 66 -287 77 -325 16 -17 -27 3 -49
72 -77 34 -14 67 -30 73 -37 18 -18 -47 -127 -215 -358 -28 -38 -55 -77 -61
-87 -5 -9 -35 -49 -66 -90 -113 -148 -200 -283 -205 -320 -6 -31 -2 -40 21
-62 15 -14 39 -26 52 -26 24 0 122 82 296 248 92 88 162 128 203 118 23 -6 24
-9 24 -105 0 -128 9 -154 65 -180 40 -19 44 -23 36 -44 -16 -42 -153 -232
-239 -330 -175 -201 -521 -498 -680 -583 -114 -61 -147 -109 -102 -149 47 -43
211 17 378 137 98 71 239 182 262 207 25 26 94 79 122 92 23 10 34 7 101 -30
120 -66 182 -60 512 53 105 35 224 74 265 86 129 38 179 76 180 138 0 70 43
52 219 -95 195 -164 286 -216 448 -257 149 -39 370 -67 532 -69 107 -1 124 2
149 20 36 27 38 54 6 92 -48 58 -122 87 -384 151 -456 111 -478 121 -819 359
-58 40 -131 93 -162 117 -67 51 -166 111 -295 178 -51 26 -99 55 -108 65 -15
16 -15 21 -1 55 9 21 13 46 10 57 -8 23 -68 65 -108 75 -32 7 -67 -17 -67 -48
0 -49 -92 -190 -111 -171 -12 12 26 105 108 268 95 188 173 325 185 325 15 0
4 -56 -32 -170 -37 -118 -38 -142 -4 -169 34 -27 79 -27 151 1 79 30 147 29
206 -1 26 -13 95 -69 153 -123 68 -63 113 -98 128 -98 12 0 42 13 67 29 156
99 105 198 -143 280 -38 13 -68 28 -68 36 0 7 16 20 36 30 55 26 195 72 239
80 129 20 226 57 260 97 33 39 33 88 1 125 -22 25 -30 28 -78 26 -98 -4 -312
-80 -597 -215 -65 -30 -108 -45 -114 -39 -6 6 6 56 31 133 50 153 50 153 67
267 19 133 2 236 -45 261 -33 17 -57 11 -87 -23z m-211 -1198 c67 -36 418
-328 414 -344 -1 -5 -42 -16 -90 -22 -85 -13 -120 -24 -436 -138 -288 -104
-340 -116 -360 -85 -18 29 -28 14 192 312 228 308 225 306 280 277z"/>
<path d="M5701 3431 c-25 -17 -4 -58 46 -88 48 -29 113 -88 113 -103 0 -26
-289 -410 -449 -595 -43 -49 -109 -126 -147 -170 -92 -108 -173 -201 -272
-314 -103 -117 -139 -175 -122 -196 18 -21 69 -18 109 6 19 11 79 62 135 113
127 116 248 209 351 272 78 47 280 156 360 193 22 10 85 40 140 66 174 82 208
96 350 149 129 47 164 44 128 -11 -66 -104 -392 -491 -488 -579 -27 -25 -57
-22 -190 21 -167 55 -316 69 -356 35 l-24 -20 32 -28 c17 -15 90 -58 161 -95
157 -83 177 -99 160 -130 -30 -58 -527 -572 -703 -729 -49 -44 -108 -97 -130
-117 -22 -20 -71 -61 -110 -91 -38 -30 -103 -83 -144 -119 -40 -37 -86 -77
-101 -91 -80 -71 -113 -149 -75 -180 12 -10 24 -7 62 16 63 37 134 87 209 149
34 27 91 72 127 98 37 26 146 112 243 190 237 191 246 197 260 197 12 0 18
-31 33 -175 52 -494 81 -626 150 -672 19 -13 42 -23 51 -23 28 0 69 39 102 97
44 78 48 79 452 148 235 40 358 46 471 21 39 -9 102 -16 141 -16 67 0 72 2
103 34 103 106 -31 216 -296 242 -40 3 -73 11 -73 16 0 5 57 69 128 142 134
140 266 305 307 387 16 30 25 65 25 94 0 43 -5 51 -57 107 -81 85 -119 102
-208 95 -109 -8 -209 -33 -397 -96 -222 -75 -310 -111 -540 -223 -103 -49
-191 -87 -197 -83 -6 3 -11 23 -11 45 0 51 0 51 401 450 329 328 521 540 663
730 129 173 144 229 79 301 -101 112 -175 106 -556 -43 -71 -28 -169 -70 -218
-94 -49 -24 -91 -44 -93 -44 -2 0 -35 -18 -72 -40 -73 -42 -100 -50 -90 -25 3
8 43 62 88 121 83 105 98 126 194 265 122 176 130 238 39 301 -90 62 -258 113
-294 89z m1009 -1875 c0 -17 -47 -86 -164 -241 -241 -318 -342 -424 -446 -467
-75 -31 -357 -118 -382 -118 -34 0 -62 74 -93 252 -8 46 -21 121 -29 168 -14
77 -14 86 1 102 9 10 23 18 31 18 8 0 54 16 103 35 229 92 585 204 744 234
188 35 235 39 235 17z"/>
<path d="M2028 1460 c-30 -19 -20 -43 42 -105 33 -33 60 -64 60 -70 -1 -15
-41 -66 -196 -247 -201 -236 -239 -270 -327 -296 -129 -40 -264 -61 -280 -46
-3 4 1 23 9 44 15 38 15 38 -36 141 -48 94 -74 168 -126 348 -20 72 -47 111
-74 111 -38 0 -45 -36 -44 -210 1 -184 19 -302 61 -405 14 -35 23 -70 20 -77
-6 -16 -166 -49 -327 -68 -114 -14 -144 -26 -148 -61 -4 -35 70 -103 130 -120
56 -15 202 -5 299 21 41 11 142 36 224 55 83 19 166 39 185 45 89 24 323 67
500 92 57 8 181 13 310 12 233 -1 260 -5 424 -64 103 -37 152 -36 193 2 58 54
66 104 27 164 -40 61 -85 87 -168 96 -90 9 -402 8 -616 -1 -91 -4 -169 -4
-173 -1 -4 4 48 66 117 138 217 230 248 273 250 349 1 54 -25 90 -95 128 -45
24 -68 30 -139 32 -50 2 -92 -1 -102 -7z"/>
<path d="M1489 1419 c-23 -43 34 -406 77 -491 16 -30 64 -68 89 -68 31 0 72
29 85 60 23 56 15 127 -25 220 -68 159 -163 300 -202 300 -7 0 -17 -10 -24
-21z"/>
</g>
</svg>
